<svg width="165" height="27" viewBox="0 0 165 27" fill="none" xmlns="http://www.w3.org/2000/svg">
<mask id="mask0_1_1885" style="mask-type:luminance" maskUnits="userSpaceOnUse" x="0" y="0" width="27" height="27">
<path d="M0 0H26.8464V26.8464H0V0Z" fill="white"/>
</mask>
<g mask="url(#mask0_1_1885)">
<mask id="mask1_1_1885" style="mask-type:luminance" maskUnits="userSpaceOnUse" x="0" y="0" width="27" height="27">
<path d="M22.5534 8.2195H19.1547C18.8815 8.2195 18.631 8.3706 18.5047 8.61692L11.4609 22.1519C11.3347 22.3982 11.0842 22.5493 10.8089 22.5493H7.30875C6.75609 22.5493 6.40214 21.9656 6.6526 21.4771L12.9678 9.2917C13.2224 8.80321 12.8685 8.2195 12.3158 8.2195H4.29293V4.29707H22.5534V8.2195ZM22.5534 22.5493H16.0043C15.4517 22.5493 15.0977 21.9656 15.3523 21.4771L20.4111 11.7569C20.5394 11.5127 20.7899 11.3616 21.0631 11.3616H22.5534V22.5493ZM4.29293 16.1865V11.3616H7.14523C7.69789 11.3616 8.05184 11.9432 7.79724 12.4358L5.67975 16.5259C5.3258 17.209 4.29293 16.9585 4.29293 16.1865ZM26.8464 0H0V26.8464H26.8464V0Z" fill="white"/>
</mask>
<g mask="url(#mask1_1_1885)">
<path d="M0 0H26.8464V26.8464H0V0Z" fill="#6D0AD8"/>
</g>
</g>
<path d="M40.9453 20.4748C39.6475 20.4748 38.6643 20.1478 37.9978 19.4895C37.3354 18.8334 37.0042 17.873 37.0042 16.6083V10.1171H35.1331V7.21101H36.0686C36.5758 7.21101 36.9214 7.09096 37.1036 6.84671C37.2899 6.60454 37.3851 6.25473 37.3851 5.79521V3.62598H40.7383V7.21101H43.3712V10.1171H40.7383V17.5687H43.1642V20.4748H40.9453Z" fill="#1B0845"/>
<path d="M50.8222 20.4748C49.5244 20.4748 48.5412 20.1478 47.8747 19.4895C47.2124 18.8334 46.8812 17.873 46.8812 16.6083V10.1171H45.01V7.21101H45.9456C46.4527 7.21101 46.7984 7.09096 46.9805 6.84671C47.1668 6.60454 47.262 6.25473 47.262 5.79521V3.62598H50.6152V7.21101H53.2481V10.1171H50.6152V17.5687H53.0412V20.4748H50.8222Z" fill="#1B0845"/>
<path d="M66.7139 20.7813C65.4327 20.7813 64.3543 20.5743 63.4766 20.1603C62.599 19.7464 61.8145 19.1626 61.1252 18.4051L63.3276 16.1779C63.7954 16.7036 64.317 17.1176 64.8924 17.4198C65.4658 17.7241 66.1137 17.8752 66.8381 17.8752C67.5771 17.8752 68.0904 17.7634 68.3781 17.5357C68.6638 17.3039 68.8086 16.9955 68.8086 16.6084C68.8086 15.9854 68.3615 15.6149 67.4674 15.499L66.0267 15.3251C63.0461 14.9504 61.5558 13.5843 61.5558 11.2267C61.5558 10.5871 61.6758 10.0013 61.9201 9.47146C62.1685 8.94157 62.5121 8.49034 62.955 8.11362C63.4021 7.73276 63.9403 7.43884 64.5695 7.22771C65.2029 7.01865 65.9191 6.91309 66.7139 6.91309C67.4032 6.91309 68.0138 6.96069 68.5437 7.05384C69.0736 7.14284 69.5414 7.27532 69.9512 7.45126C70.3652 7.62926 70.7419 7.84867 71.0855 8.11362C71.4333 8.37442 71.7769 8.66421 72.1205 8.98297L69.9678 11.177C69.5476 10.7589 69.0736 10.4277 68.5437 10.1835C68.0138 9.93511 67.4694 9.81092 66.9126 9.81092C66.271 9.81092 65.8156 9.91441 65.5465 10.1173C65.2754 10.3222 65.1408 10.5933 65.1408 10.9287C65.1408 11.2826 65.236 11.5558 65.4306 11.7483C65.6293 11.9429 65.9957 12.0795 66.5318 12.1623L68.0221 12.3693C70.9365 12.7564 72.3937 14.0873 72.3937 16.36C72.3937 17.0017 72.2571 17.5916 71.988 18.1318C71.7168 18.6679 71.3339 19.1337 70.8371 19.5311C70.3404 19.9244 69.7401 20.2307 69.0405 20.4501C68.345 20.6695 67.5688 20.7813 66.7139 20.7813Z" fill="#1B0845"/>
<path d="M80.5251 20.7813C79.5481 20.7813 78.6746 20.6198 77.9087 20.3011C77.147 19.9823 76.5012 19.5187 75.9713 18.9101C75.4414 18.3036 75.0316 17.573 74.746 16.716C74.4583 15.855 74.3154 14.8945 74.3154 13.8348C74.3154 12.7709 74.4583 11.8104 74.746 10.9535C75.0316 10.0924 75.4414 9.36383 75.9713 8.7677C76.5012 8.17157 77.147 7.71413 77.9087 7.3933C78.6746 7.07454 79.5481 6.91309 80.5251 6.91309C81.5021 6.91309 82.3735 7.07454 83.1414 7.3933C83.9073 7.71413 84.5572 8.17157 85.0871 8.7677C85.617 9.36383 86.0247 10.0924 86.3125 10.9535C86.5981 11.8104 86.743 12.7709 86.743 13.8348C86.743 14.8945 86.5981 15.855 86.3125 16.716C86.0247 17.573 85.617 18.3036 85.0871 18.9101C84.5572 19.5187 83.9073 19.9823 83.1414 20.3011C82.3735 20.6198 81.5021 20.7813 80.5251 20.7813ZM80.5251 17.8255C81.2702 17.8255 81.8436 17.5999 82.2472 17.1466C82.6488 16.6891 82.8516 16.0371 82.8516 15.1926V12.4935C82.8516 11.649 82.6488 11.0011 82.2472 10.5478C81.8436 10.0966 81.2702 9.86888 80.5251 9.86888C79.7841 9.86888 79.2128 10.0966 78.8112 10.5478C78.4076 11.0011 78.2068 11.649 78.2068 12.4935V15.1926C78.2068 16.0371 78.4076 16.6891 78.8112 17.1466C79.2128 17.5999 79.7841 17.8255 80.5251 17.8255Z" fill="#1B0845"/>
<path d="M93.3101 20.4747C92.0288 20.4747 91.0911 20.1642 90.495 19.5391C89.8989 18.9161 89.6008 18.0157 89.6008 16.84V1.77954H93.3349V17.5686H94.9991V20.4747H93.3101Z" fill="#1B0845"/>
<path d="M105.281 18.2558H105.157C105.041 18.5932 104.886 18.914 104.693 19.2162C104.499 19.5143 104.25 19.7834 103.948 20.0194C103.644 20.2574 103.286 20.4416 102.872 20.5741C102.458 20.7107 101.982 20.7811 101.448 20.7811C100.077 20.7811 99.0425 20.3319 98.3429 19.4315C97.6474 18.527 97.2997 17.2333 97.2997 15.5484V7.21094H101.042V15.2172C101.042 16.0286 101.183 16.6537 101.464 17.0884C101.75 17.5252 102.243 17.7425 102.938 17.7425C103.22 17.7425 103.503 17.7011 103.791 17.6183C104.076 17.5355 104.331 17.4155 104.553 17.254C104.772 17.0946 104.95 16.898 105.082 16.6662C105.215 16.4302 105.281 16.1508 105.281 15.8299V7.21094H109.023V20.4747H105.281V18.2558Z" fill="#1B0845"/>
<path d="M118.063 6.91309C119.409 6.91309 120.533 7.21736 121.433 7.82383C122.338 8.42617 122.983 9.27689 123.37 10.3739L120.34 11.6821C120.224 11.1812 119.978 10.7527 119.603 10.3988C119.233 10.0469 118.719 9.86888 118.063 9.86888C117.306 9.86888 116.734 10.1173 116.349 10.614C115.962 11.1108 115.77 11.7794 115.77 12.6177V15.0933C115.77 15.9378 115.962 16.6063 116.349 17.0969C116.734 17.5833 117.306 17.8255 118.063 17.8255C118.736 17.8255 119.272 17.6433 119.669 17.2791C120.067 16.9148 120.357 16.4407 120.539 15.855L123.445 17.1135C123.008 18.345 122.352 19.2558 121.474 19.8457C120.601 20.4377 119.549 20.7482 118.32 20.7813L118.088 21.8659L118.196 21.9653C118.394 21.9156 118.593 21.8742 118.792 21.8411C118.995 21.808 119.2 21.7914 119.405 21.7914C119.912 21.7914 120.344 21.9239 120.704 22.1888C121.069 22.4579 121.251 22.905 121.251 23.5301C121.251 23.9648 121.156 24.327 120.969 24.6147C120.787 24.9004 120.539 25.1363 120.224 25.3185C119.914 25.5048 119.556 25.6372 119.148 25.7159C118.744 25.7925 118.332 25.8318 117.914 25.8318C117.037 25.8318 116.349 25.7076 115.853 25.4592C115.356 25.215 115 24.9707 114.785 24.7223L115.944 23.3065C116.113 23.5053 116.337 23.675 116.614 23.8199C116.89 23.9627 117.221 24.0351 117.608 24.0351C117.927 24.0351 118.192 23.9855 118.403 23.8861C118.618 23.7868 118.726 23.6253 118.726 23.4059C118.726 23.3065 118.697 23.2031 118.643 23.0996C118.593 23.0002 118.496 22.9029 118.353 22.8098C118.208 22.7146 118.016 22.6297 117.773 22.5531C117.529 22.4807 117.215 22.4289 116.83 22.3958L116.3 22.3461L116.647 20.6488C115.101 20.3632 113.919 19.6222 113.104 18.4299C112.286 17.2335 111.878 15.7018 111.878 13.8348C111.878 12.7709 112.011 11.8125 112.276 10.9618C112.545 10.1131 112.942 9.38659 113.468 8.78426C113.992 8.17778 114.64 7.71413 115.414 7.3933C116.186 7.07454 117.07 6.91309 118.063 6.91309Z" fill="#1B0845"/>
<path d="M131.35 20.7811C130.373 20.7811 129.499 20.6197 128.734 20.3009C127.972 19.9822 127.326 19.5185 126.796 18.91C126.266 18.3035 125.856 17.5728 125.571 16.7159C125.283 15.8548 125.14 14.8944 125.14 13.8346C125.14 12.7707 125.283 11.8103 125.571 10.9533C125.856 10.0923 126.266 9.36368 126.796 8.76755C127.326 8.17143 127.972 7.71399 128.734 7.39315C129.499 7.07439 130.373 6.91294 131.35 6.91294C132.327 6.91294 133.198 7.07439 133.966 7.39315C134.732 7.71399 135.382 8.17143 135.912 8.76755C136.442 9.36368 136.85 10.0923 137.137 10.9533C137.423 11.8103 137.568 12.7707 137.568 13.8346C137.568 14.8944 137.423 15.8548 137.137 16.7159C136.85 17.5728 136.442 18.3035 135.912 18.91C135.382 19.5185 134.732 19.9822 133.966 20.3009C133.198 20.6197 132.327 20.7811 131.35 20.7811ZM131.35 17.8254C132.095 17.8254 132.668 17.5997 133.072 17.1464C133.474 16.689 133.676 16.037 133.676 15.1925V12.4933C133.676 11.6488 133.474 11.001 133.072 10.5477C132.668 10.0964 132.095 9.86873 131.35 9.86873C130.609 9.86873 130.038 10.0964 129.636 10.5477C129.232 11.001 129.032 11.6488 129.032 12.4933V15.1925C129.032 16.037 129.232 16.689 129.636 17.1464C130.038 17.5997 130.609 17.8254 131.35 17.8254ZM133.271 5.29015C132.884 5.29015 132.542 5.24048 132.244 5.14112C131.95 5.04177 131.644 4.92379 131.325 4.7851C130.955 4.63607 130.617 4.50774 130.315 4.39597C130.011 4.28626 129.69 4.23038 129.355 4.23038C129.067 4.23038 128.812 4.28419 128.593 4.38769C128.378 4.48704 128.133 4.64435 127.864 4.85962L126.556 3.14576C126.858 2.69452 127.245 2.31366 127.715 2.00318C128.183 1.68856 128.754 1.53125 129.429 1.53125C129.82 1.53125 130.162 1.58093 130.456 1.68028C130.748 1.77964 131.054 1.89969 131.375 2.0363C131.743 2.18533 132.081 2.31574 132.385 2.42544C132.687 2.53721 133.008 2.59103 133.345 2.59103C133.631 2.59103 133.886 2.54135 134.107 2.442C134.326 2.3385 134.571 2.17705 134.836 1.96179L136.152 3.67565C135.848 4.12895 135.459 4.51188 134.985 4.8265C134.515 5.13698 133.943 5.29015 133.271 5.29015Z" fill="#1B0845"/>
<path d="M145.956 20.7813C144.946 20.7813 144.044 20.6178 143.249 20.2928C142.458 19.9616 141.792 19.498 141.245 18.9018C140.699 18.3016 140.285 17.573 140.003 16.716C139.726 15.855 139.589 14.8945 139.589 13.8348C139.589 12.7874 139.722 11.8373 139.987 10.9866C140.256 10.138 140.658 9.41143 141.187 8.8091C141.721 8.20262 142.376 7.7369 143.15 7.40986C143.922 7.07868 144.806 6.91309 145.799 6.91309C146.896 6.91309 147.836 7.09938 148.614 7.46781C149.397 7.83832 150.038 8.33509 150.535 8.95813C151.032 9.58323 151.392 10.3036 151.62 11.1191C151.851 11.9367 151.967 12.7895 151.967 13.6775V14.7952H143.456V14.9939C143.456 15.8715 143.69 16.567 144.16 17.0803C144.628 17.5937 145.371 17.8503 146.387 17.8503C147.159 17.8503 147.788 17.6972 148.275 17.3867C148.765 17.0721 149.221 16.6953 149.641 16.2524L151.512 18.5789C150.92 19.2703 150.148 19.8105 149.194 20.2017C148.244 20.5867 147.165 20.7813 145.956 20.7813ZM145.882 9.66189C145.12 9.66189 144.524 9.91027 144.094 10.407C143.667 10.9038 143.456 11.5662 143.456 12.3941V12.5928H148.101V12.3693C148.101 11.5579 147.919 10.9038 147.554 10.407C147.194 9.91027 146.637 9.66189 145.882 9.66189Z" fill="#1B0845"/>
<path d="M159.32 20.7813C158.039 20.7813 156.961 20.5743 156.083 20.1603C155.205 19.7464 154.421 19.1626 153.732 18.4051L155.934 16.1779C156.402 16.7036 156.923 17.1176 157.499 17.4198C158.072 17.7241 158.72 17.8752 159.444 17.8752C160.183 17.8752 160.697 17.7634 160.984 17.5357C161.27 17.3039 161.415 16.9955 161.415 16.6084C161.415 15.9854 160.968 15.6149 160.074 15.499L158.633 15.3251C155.652 14.9504 154.162 13.5843 154.162 11.2267C154.162 10.5871 154.282 10.0013 154.526 9.47146C154.775 8.94157 155.118 8.49034 155.561 8.11362C156.008 7.73276 156.547 7.43884 157.176 7.22771C157.809 7.01865 158.525 6.91309 159.32 6.91309C160.01 6.91309 160.62 6.96069 161.15 7.05384C161.68 7.14284 162.148 7.27532 162.558 7.45126C162.972 7.62926 163.348 7.84867 163.692 8.11362C164.04 8.37442 164.383 8.66421 164.727 8.98297L162.574 11.177C162.154 10.7589 161.68 10.4277 161.15 10.1835C160.62 9.93511 160.076 9.81092 159.519 9.81092C158.877 9.81092 158.422 9.91441 158.153 10.1173C157.882 10.3222 157.747 10.5933 157.747 10.9287C157.747 11.2826 157.842 11.5558 158.037 11.7483C158.236 11.9429 158.602 12.0795 159.138 12.1623L160.628 12.3693C163.543 12.7564 165 14.0873 165 16.36C165 17.0017 164.863 17.5916 164.594 18.1318C164.323 18.6679 163.94 19.1337 163.443 19.5311C162.947 19.9244 162.346 20.2307 161.647 20.4501C160.951 20.6695 160.175 20.7813 159.32 20.7813Z" fill="#1B0845"/>
</svg>
