<svg xmlns="http://www.w3.org/2000/svg" viewBox="0 0 500 500"><g id="freepik--background-complete--inject-304"><rect y="382.4" width="500" height="0.25" style="fill:#ebebeb"></rect><rect x="416.78" y="398.49" width="33.12" height="0.25" style="fill:#ebebeb"></rect><rect x="322.53" y="401.21" width="8.69" height="0.25" style="fill:#ebebeb"></rect><rect x="396.59" y="389.21" width="19.19" height="0.25" style="fill:#ebebeb"></rect><rect x="52.46" y="390.89" width="43.19" height="0.25" style="fill:#ebebeb"></rect><rect x="104.56" y="390.89" width="6.33" height="0.25" style="fill:#ebebeb"></rect><rect x="131.47" y="395.11" width="93.68" height="0.25" style="fill:#ebebeb"></rect><path d="M237,337.8H43.91a5.71,5.71,0,0,1-5.7-5.71V60.66A5.71,5.71,0,0,1,43.91,55H237a5.71,5.71,0,0,1,5.71,5.71V332.09A5.71,5.71,0,0,1,237,337.8ZM43.91,55.2a5.46,5.46,0,0,0-5.45,5.46V332.09a5.46,5.46,0,0,0,5.45,5.46H237a5.47,5.47,0,0,0,5.46-5.46V60.66A5.47,5.47,0,0,0,237,55.2Z" style="fill:#ebebeb"></path><path d="M453.31,337.8H260.21a5.72,5.72,0,0,1-5.71-5.71V60.66A5.72,5.72,0,0,1,260.21,55h193.1A5.71,5.71,0,0,1,459,60.66V332.09A5.71,5.71,0,0,1,453.31,337.8ZM260.21,55.2a5.47,5.47,0,0,0-5.46,5.46V332.09a5.47,5.47,0,0,0,5.46,5.46h193.1a5.47,5.47,0,0,0,5.46-5.46V60.66a5.47,5.47,0,0,0-5.46-5.46Z" style="fill:#ebebeb"></path><path d="M226.05,229.68a9.59,9.59,0,0,0,9.28-15.61c-19.36-23.28-19.71-63.81,1.35-99.23L351.46,183.1c-21.06,35.42-56.86,54.46-86.55,48.57a9.58,9.58,0,0,0-9.28,15.6c19.36,23.28,19.71,63.82-1.35,99.24L139.49,278.24C160.56,242.82,196.35,223.78,226.05,229.68Z" style="fill:#f0f0f0"></path><path d="M232.6,128.37H366.28a5.34,5.34,0,0,1,5.34,5.34v17.8a0,0,0,0,1,0,0H227.26a0,0,0,0,1,0,0V133.71a5.34,5.34,0,0,1,5.34-5.34Z" transform="translate(485.27 413.28) rotate(-149.26)" style="fill:#e0e0e0"></path><path d="M234.27,98.49,367,177.42a4.63,4.63,0,0,0,6.34-1.62h0a4.62,4.62,0,0,0-1.61-6.34L239,90.54a4.63,4.63,0,0,0-6.35,1.61h0A4.62,4.62,0,0,0,234.27,98.49Z" style="fill:#e6e6e6"></path><path d="M124.67,309.84H258.36a5.34,5.34,0,0,1,5.34,5.34V333a0,0,0,0,1,0,0H119.33a0,0,0,0,1,0,0v-17.8A5.34,5.34,0,0,1,124.67,309.84Z" transform="translate(191.21 -52.73) rotate(30.74)" style="fill:#e0e0e0"></path><path d="M256.68,362.85,124,283.93a4.63,4.63,0,0,0-6.35,1.61h0a4.62,4.62,0,0,0,1.61,6.34L252,370.81a4.63,4.63,0,0,0,6.34-1.62h0A4.62,4.62,0,0,0,256.68,362.85Z" style="fill:#e6e6e6"></path><path d="M291.71,225.71s-26.5,7-43.06-2.89-19.54-34.34-19.54-34.34,23.06,1.21,26.88,7.73-.41,9,11,10.74,7.8,1.59,15.65,6.19,12.52,6.8,13.1,5.82,2.95,4.33,2.95,4.33Z" style="fill:#e0e0e0"></path><path d="M253.26,338.34s9.46-15.9,9.8-33.49S260,294.54,251.78,299s-8.53-8.88-15.13-5.52-16.76-3.6-24.7-6.48-14.4,6.78-24.29,2-27.25-10.15-31.9-6Z" style="fill:#e0e0e0"></path><path d="M258.49,227.39c-4.92.17-12.71,8.22-11.16,15.68s-4.68,24.11-3.76,28.75-3.68,1.55-3.4-2,3.92-12.78,1.27-13.73-7.94,30.36-7.94,30.36,1.95,6.79,1.16,10.44-11.62.26-11.62.26,2.84-7.17,4.09-9.27,2.76-9.29,5-16.12,7.45-14.95,7.16-24.47.89-12,2.74-18.76,0-14.57-1.53-16.95,24.4,16.19,24.4,16.19A54.14,54.14,0,0,0,258.49,227.39Z" style="fill:#e0e0e0"></path><path d="M128.17,324s-48.9-64.34-33.12-139.61C111.34,106.68,196.3,89.58,196.3,89.58L183.77,77.33l39.59,17.22-19,39.52.36-27.35s-66.32,12.13-91.53,73.39S128.17,324,128.17,324Z" style="fill:#f0f0f0"></path><path d="M362.79,137.37S411.69,201.7,395.91,277c-16.29,77.68-101.25,94.78-101.25,94.78L307.19,384l-39.6-17.23,19-39.52-.36,27.35s66.32-12.12,91.52-73.38S362.79,137.37,362.79,137.37Z" style="fill:#f0f0f0"></path><text transform="matrix(0.98, 0.17, -0.17, 0.98, 406.17, 280.67)" style="font-size:42.18696975708008px;fill:#e0e0e0;font-family:MyriadPro-Regular, Myriad Pro">!</text><text transform="translate(69.7 236.43) rotate(-9.7)" style="font-size:42.18696975708008px;fill:#e0e0e0;font-family:MyriadPro-Regular, Myriad Pro">!</text><text transform="translate(159.7 203.56) rotate(1.57)" style="font-size:42.18696975708008px;fill:#e0e0e0;font-family:MyriadPro-Regular, Myriad Pro">!</text><text transform="translate(149.17 365.85) rotate(7.06)" style="font-size:42.18696975708008px;fill:#e0e0e0;font-family:MyriadPro-Regular, Myriad Pro">!</text></g><g id="freepik--Shadow--inject-304"><ellipse id="freepik--path--inject-304" cx="250" cy="416.24" rx="193.89" ry="11.32" style="fill:#f5f5f5"></ellipse></g><g id="freepik--Wind--inject-304"><path d="M112.12,279.3a.5.5,0,0,1-.49-.42.49.49,0,0,1,.42-.57l3.38-.54a.5.5,0,0,1,.16,1l-3.39.53Z" style="fill:#263238"></path><path d="M124.62,277.27a.5.5,0,0,1-.08-1c2.67-.45,5.71-1,9.1-1.55a.51.51,0,0,1,.58.41.51.51,0,0,1-.41.58c-3.39.58-6.44,1.1-9.11,1.54Z" style="fill:#263238"></path><path d="M137.25,275.12a.49.49,0,0,1-.49-.41.49.49,0,0,1,.4-.58c4.24-.74,8.92-1.56,14-2.47a.51.51,0,0,1,.58.4.5.5,0,0,1-.4.58c-5.06.91-9.74,1.74-14,2.47Z" style="fill:#263238"></path><path d="M153.2,272.29a.5.5,0,0,1-.09-1c61.9-11.2,208.18-40.56,229.5-71.3,7.06-10.18,9.81-25.27,0-36-3.4-3.76-9.26-5.83-16.07-5.78-8.81.11-17.63,3.8-22.46,9.41-6.27,7.27-6.8,15.18-1.4,21.16s14.89,7.88,20.55,3.94c3.86-2.7,5.79-5.45,5.72-8.18-.1-3.86-4.22-6.46-4.26-6.49a.49.49,0,0,1-.16-.68.5.5,0,0,1,.69-.17c.19.12,4.61,2.91,4.73,7.31.08,3.09-2,6.13-6.15,9-6,4.21-16.06,2.34-21.86-4.09s-5.25-14.79,1.38-22.48c5-5.82,14.12-9.64,23.21-9.76,7.21-.08,13.17,2.08,16.82,6.1,10.14,11.18,7.33,26.79,0,37.29-20.76,29.93-153.1,57.78-230.14,71.72Z" style="fill:#263238"></path><path d="M122.3,284.85a.5.5,0,0,1,0-1c.1,0,9.82-.85,26.77-3.21a.5.5,0,0,1,.57.42.51.51,0,0,1-.43.57c-17,2.36-26.73,3.21-26.83,3.22Z" style="fill:#263238"></path><path d="M153,281.08a.5.5,0,0,1-.07-1c9.74-1.4,19.91-3,30.22-4.81a.49.49,0,0,1,.58.4.49.49,0,0,1-.41.58c-10.32,1.8-20.49,3.42-30.25,4.82Z" style="fill:#263238"></path><path d="M358.17,275.88a25.15,25.15,0,0,1-12.68-3.32c-6.11-3.63-8.58-9.57-6.78-16.3,2.39-8.89,7.39-10.61,10.16-10.85a12.1,12.1,0,0,1,11.32,6.7,6.64,6.64,0,0,1-1.34,7.9.5.5,0,1,1-.7-.72,5.68,5.68,0,0,0,1.13-6.77A11.08,11.08,0,0,0,349,246.41c-4.33.36-7.62,4-9.27,10.11-2.3,8.58,3,13.19,6.32,15.18,7.85,4.66,19.67,4,25.3-1.32,5.92-5.64,7.15-16.34,2.75-23.87-5.89-10-19.7-12.61-37.88-7A1259.59,1259.59,0,0,1,189.88,275.1a.5.5,0,1,1-.18-1,1255.16,1255.16,0,0,0,146.18-35.58c26.5-8.15,36.12,2.51,39,7.48,4.62,7.9,3.31,19.16-2.92,25.1C368.68,274.26,363.52,275.88,358.17,275.88Z" style="fill:#263238"></path><g style="opacity:0.6000000000000001"><path d="M112.12,279.3a.5.5,0,0,1-.49-.42.49.49,0,0,1,.42-.57l3.38-.54a.5.5,0,0,1,.16,1l-3.39.53Z" style="fill:#fff"></path><path d="M124.62,277.27a.5.5,0,0,1-.08-1c2.67-.45,5.71-1,9.1-1.55a.51.51,0,0,1,.58.41.51.51,0,0,1-.41.58c-3.39.58-6.44,1.1-9.11,1.54Z" style="fill:#fff"></path><path d="M137.25,275.12a.49.49,0,0,1-.49-.41.49.49,0,0,1,.4-.58c4.24-.74,8.92-1.56,14-2.47a.51.51,0,0,1,.58.4.5.5,0,0,1-.4.58c-5.06.91-9.74,1.74-14,2.47Z" style="fill:#fff"></path><path d="M153.2,272.29a.5.5,0,0,1-.09-1c61.9-11.2,208.18-40.56,229.5-71.3,7.06-10.18,9.81-25.27,0-36-3.4-3.76-9.26-5.83-16.07-5.78-8.81.11-17.63,3.8-22.46,9.41-6.27,7.27-6.8,15.18-1.4,21.16s14.89,7.88,20.55,3.94c3.86-2.7,5.79-5.45,5.72-8.18-.1-3.86-4.22-6.46-4.26-6.49a.49.49,0,0,1-.16-.68.5.5,0,0,1,.69-.17c.19.12,4.61,2.91,4.73,7.31.08,3.09-2,6.13-6.15,9-6,4.21-16.06,2.34-21.86-4.09s-5.25-14.79,1.38-22.48c5-5.82,14.12-9.64,23.21-9.76,7.21-.08,13.17,2.08,16.82,6.1,10.14,11.18,7.33,26.79,0,37.29-20.76,29.93-153.1,57.78-230.14,71.72Z" style="fill:#fff"></path><path d="M122.3,284.85a.5.5,0,0,1,0-1c.1,0,9.82-.85,26.77-3.21a.5.5,0,0,1,.57.42.51.51,0,0,1-.43.57c-17,2.36-26.73,3.21-26.83,3.22Z" style="fill:#fff"></path><path d="M153,281.08a.5.5,0,0,1-.07-1c9.74-1.4,19.91-3,30.22-4.81a.49.49,0,0,1,.58.4.49.49,0,0,1-.41.58c-10.32,1.8-20.49,3.42-30.25,4.82Z" style="fill:#fff"></path><path d="M358.17,275.88a25.15,25.15,0,0,1-12.68-3.32c-6.11-3.63-8.58-9.57-6.78-16.3,2.39-8.89,7.39-10.61,10.16-10.85a12.1,12.1,0,0,1,11.32,6.7,6.64,6.64,0,0,1-1.34,7.9.5.5,0,1,1-.7-.72,5.68,5.68,0,0,0,1.13-6.77A11.08,11.08,0,0,0,349,246.41c-4.33.36-7.62,4-9.27,10.11-2.3,8.58,3,13.19,6.32,15.18,7.85,4.66,19.67,4,25.3-1.32,5.92-5.64,7.15-16.34,2.75-23.87-5.89-10-19.7-12.61-37.88-7A1259.59,1259.59,0,0,1,189.88,275.1a.5.5,0,1,1-.18-1,1255.16,1255.16,0,0,0,146.18-35.58c26.5-8.15,36.12,2.51,39,7.48,4.62,7.9,3.31,19.16-2.92,25.1C368.68,274.26,363.52,275.88,358.17,275.88Z" style="fill:#fff"></path></g></g><g id="freepik--siren-lamp--inject-304"><path d="M147.12,141.51h-29.8q.25-3.09.52-6.23.93-11.25,1.82-23a4.08,4.08,0,0,1,2.68-3.46,36.25,36.25,0,0,1,19.76,0,4.09,4.09,0,0,1,2.67,3.46c.63,8.07,1.24,16,1.88,23.69C146.82,137.82,147,139.67,147.12,141.51Z" style="fill:#6D0AD8"></path><path d="M129.14,125.58c0,6.5-2.17,11.78-4.85,11.78s-4.84-5.28-4.84-11.78,2.17-11.77,4.84-11.77S129.14,119.08,129.14,125.58Z" style="fill:#fff;opacity:0.2"></path><path d="M125.43,124.47c0,3-1.21,5.47-2.7,5.47s-2.71-2.45-2.71-5.47,1.21-5.46,2.71-5.46S125.43,121.45,125.43,124.47Z" style="fill:#fff;opacity:0.30000000000000004"></path><path d="M132,123.61v1.27a2,2,0,0,0,1.9,2v12.54h-3.34V120.1a1.67,1.67,0,1,1,3.34,0v1.51A2,2,0,0,0,132,123.61Z" style="opacity:0.2"></path><path d="M142.1,125.11c-.12,2.36-.74,4.13-1.5,4.13a.58.58,0,0,1-.34-.13l-6.6-2.69c-.66,0-1.2-1-1.2-2.17s.54-2.17,1.2-2.17l6.58-2.79a.64.64,0,0,1,.36-.16c.76,0,1.38,1.79,1.5,4.14-.12-2-.69-3.61-1.36-3.61s-1.41,2-1.41,4.53.63,4.52,1.41,4.52S142,127.16,142.1,125.11Z" style="opacity:0.2"></path><path d="M130.25,121.84l-6-2.55a.58.58,0,0,0-.36-.16c-.85,0-1.54,2.27-1.54,5.06s.69,5.06,1.54,5.06a.6.6,0,0,0,.35-.15l6-2.45Z" style="opacity:0.2"></path><path d="M145,124.93c0,6.5-2.17,11.77-4.84,11.77s-4.85-5.27-4.85-11.77,2.17-11.78,4.85-11.78S145,118.43,145,124.93Z" style="fill:#fff;opacity:0.5"></path><path d="M144.47,124.47c0,2.43-1,4.4-2.18,4.4s-2.17-2-2.17-4.4,1-4.39,2.17-4.39S144.47,122.05,144.47,124.47Z" style="fill:#fff;opacity:0.5"></path><path d="M121.16,111.18a43.83,43.83,0,0,1,21.76,0s-2.64-3.1-11.41-3.1S121.16,111.18,121.16,111.18Z" style="fill:#fff;opacity:0.30000000000000004"></path><path d="M147.12,141.51h-29.8q.25-3.09.52-6.23c1.12.93,4.56,2.67,14.39,2.67,8.26,0,12.43-1.12,14.42-2C146.82,137.82,147,139.67,147.12,141.51Z" style="opacity:0.2"></path><path d="M142,388h-5.74V148.89h1.88a3.61,3.61,0,0,0,3.6-3.6V141a3.6,3.6,0,0,0-3.6-3.6H126.33a3.6,3.6,0,0,0-3.6,3.6v4.33a3.6,3.6,0,0,0,3.6,3.6h1.87V388h-5.74a6.33,6.33,0,0,0-6.33,6.33h32.18A6.33,6.33,0,0,0,142,388Z" style="fill:#263238"></path><path d="M148.31,394.36H116.14a6.33,6.33,0,0,1,6.33-6.33h5.74V148.89h-1.88a3.6,3.6,0,0,1-3.6-3.6V141a3.6,3.6,0,0,1,3.6-3.6h11.79a3.6,3.6,0,0,1,3.6,3.6v4.33a3.6,3.6,0,0,1-3.6,3.6h-1.87V388H142A6.33,6.33,0,0,1,148.31,394.36Z" style="fill:#fff;opacity:0.2"></path><path d="M141.72,141v4.33a3.6,3.6,0,0,1-3.6,3.6h-1.87v30.39l-8,6.35V148.89h-1.88a3.6,3.6,0,0,1-3.6-3.6V141a3.6,3.6,0,0,1,3.6-3.6h11.79A3.6,3.6,0,0,1,141.72,141Z" style="opacity:0.2"></path><rect x="116.58" y="139.92" width="31.28" height="6.07" rx="1.17" style="fill:#263238"></rect><rect x="116.58" y="139.92" width="31.28" height="6.07" rx="1.17" style="fill:#fff;opacity:0.4"></rect><path d="M154.82,95.78a.5.5,0,0,0-.81-.59,19.86,19.86,0,0,1-2.47,2.39,19.52,19.52,0,0,0-2.62,2.55,10.84,10.84,0,0,0-2.14,4.08.5.5,0,0,0,.39.59h.1a.51.51,0,0,0,.49-.4,9.84,9.84,0,0,1,2-3.69,19.86,19.86,0,0,1,2.47-2.39A20.15,20.15,0,0,0,154.82,95.78Z" style="fill:#6D0AD8"></path><path d="M166.52,114a.5.5,0,0,0-.67-.24,24.87,24.87,0,0,1-7,1.67,32.85,32.85,0,0,0-5.73,1.13.5.5,0,0,0-.31.64.49.49,0,0,0,.47.34.41.41,0,0,0,.16,0,31.91,31.91,0,0,1,5.55-1.09,25.53,25.53,0,0,0,7.35-1.76A.5.5,0,0,0,166.52,114Z" style="fill:#6D0AD8"></path><path d="M165.3,133.55c-1.24-.41-2.86-.82-4.56-1.26s-3.75-.95-5.1-1.43a.5.5,0,0,0-.34.94c1.4.5,3.33,1,5.19,1.46,1.69.43,3.28.84,4.49,1.24l.16,0a.5.5,0,0,0,.16-1Z" style="fill:#6D0AD8"></path><path d="M161.84,149.7a18.6,18.6,0,0,1-4.34-3.81,32.65,32.65,0,0,0-2.76-2.76.5.5,0,0,0-.65.76,32.26,32.26,0,0,1,2.68,2.68,19.24,19.24,0,0,0,4.56,4,.47.47,0,0,0,.25.07.52.52,0,0,0,.44-.24A.51.51,0,0,0,161.84,149.7Z" style="fill:#6D0AD8"></path><path d="M111.41,96.15a.5.5,0,1,0-.66.74,40.94,40.94,0,0,1,6.75,7.7.49.49,0,0,0,.41.22.47.47,0,0,0,.28-.09.5.5,0,0,0,.14-.69A41.93,41.93,0,0,0,111.41,96.15Z" style="fill:#6D0AD8"></path><path d="M112,115.73a41.72,41.72,0,0,1-4.44-1.62c-2.77-1.13-5.63-2.29-8.2-2.38a.5.5,0,0,0,0,1c2.39.08,5.17,1.21,7.85,2.3a42.38,42.38,0,0,0,4.55,1.67l.14,0a.5.5,0,0,0,.48-.37A.52.52,0,0,0,112,115.73Z" style="fill:#6D0AD8"></path><path d="M108.16,130h0a.5.5,0,0,0,.5-.5.5.5,0,0,0-.51-.5,8.22,8.22,0,0,0-3.64,1.16,8.75,8.75,0,0,1-4,.73,9.67,9.67,0,0,0-4.38.84.5.5,0,0,0-.22.67.51.51,0,0,0,.45.27.59.59,0,0,0,.22-.05,8.78,8.78,0,0,1,4-.73,9.71,9.71,0,0,0,4.39-.84A7.44,7.44,0,0,1,108.16,130Z" style="fill:#6D0AD8"></path><path d="M110.18,143.7l-.54.21c-2.79,1.13-5.69,2.29-7.73,4.65a.51.51,0,0,0,0,.71.52.52,0,0,0,.33.12.49.49,0,0,0,.38-.18c1.88-2.18,4.54-3.24,7.35-4.37l.54-.21a.5.5,0,0,0-.38-.93Z" style="fill:#6D0AD8"></path><path d="M133,89.55a.49.49,0,0,0-.55.44,108.74,108.74,0,0,0-.41,12.11.5.5,0,0,0,.5.48h0a.51.51,0,0,0,.48-.52,108.46,108.46,0,0,1,.4-12A.5.5,0,0,0,133,89.55Z" style="fill:#6D0AD8"></path><g style="opacity:0.5"><path d="M154.82,95.78a.5.5,0,0,0-.81-.59,19.86,19.86,0,0,1-2.47,2.39,19.52,19.52,0,0,0-2.62,2.55,10.84,10.84,0,0,0-2.14,4.08.5.5,0,0,0,.39.59h.1a.51.51,0,0,0,.49-.4,9.84,9.84,0,0,1,2-3.69,19.86,19.86,0,0,1,2.47-2.39A20.15,20.15,0,0,0,154.82,95.78Z" style="fill:#fff"></path><path d="M166.52,114a.5.5,0,0,0-.67-.24,24.87,24.87,0,0,1-7,1.67,32.85,32.85,0,0,0-5.73,1.13.5.5,0,0,0-.31.64.49.49,0,0,0,.47.34.41.41,0,0,0,.16,0,31.91,31.91,0,0,1,5.55-1.09,25.53,25.53,0,0,0,7.35-1.76A.5.5,0,0,0,166.52,114Z" style="fill:#fff"></path><path d="M165.3,133.55c-1.24-.41-2.86-.82-4.56-1.26s-3.75-.95-5.1-1.43a.5.5,0,0,0-.34.94c1.4.5,3.33,1,5.19,1.46,1.69.43,3.28.84,4.49,1.24l.16,0a.5.5,0,0,0,.16-1Z" style="fill:#fff"></path><path d="M161.84,149.7a18.6,18.6,0,0,1-4.34-3.81,32.65,32.65,0,0,0-2.76-2.76.5.5,0,0,0-.65.76,32.26,32.26,0,0,1,2.68,2.68,19.24,19.24,0,0,0,4.56,4,.47.47,0,0,0,.25.07.52.52,0,0,0,.44-.24A.51.51,0,0,0,161.84,149.7Z" style="fill:#fff"></path><path d="M111.41,96.15a.5.5,0,1,0-.66.74,40.94,40.94,0,0,1,6.75,7.7.49.49,0,0,0,.41.22.47.47,0,0,0,.28-.09.5.5,0,0,0,.14-.69A41.93,41.93,0,0,0,111.41,96.15Z" style="fill:#fff"></path><path d="M112,115.73a41.72,41.72,0,0,1-4.44-1.62c-2.77-1.13-5.63-2.29-8.2-2.38a.5.5,0,0,0,0,1c2.39.08,5.17,1.21,7.85,2.3a42.38,42.38,0,0,0,4.55,1.67l.14,0a.5.5,0,0,0,.48-.37A.52.52,0,0,0,112,115.73Z" style="fill:#fff"></path><path d="M108.16,130h0a.5.5,0,0,0,.5-.5.5.5,0,0,0-.51-.5,8.22,8.22,0,0,0-3.64,1.16,8.75,8.75,0,0,1-4,.73,9.67,9.67,0,0,0-4.38.84.5.5,0,0,0-.22.67.51.51,0,0,0,.45.27.59.59,0,0,0,.22-.05,8.78,8.78,0,0,1,4-.73,9.71,9.71,0,0,0,4.39-.84A7.44,7.44,0,0,1,108.16,130Z" style="fill:#fff"></path><path d="M110.18,143.7l-.54.21c-2.79,1.13-5.69,2.29-7.73,4.65a.51.51,0,0,0,0,.71.52.52,0,0,0,.33.12.49.49,0,0,0,.38-.18c1.88-2.18,4.54-3.24,7.35-4.37l.54-.21a.5.5,0,0,0-.38-.93Z" style="fill:#fff"></path><path d="M133,89.55a.49.49,0,0,0-.55.44,108.74,108.74,0,0,0-.41,12.11.5.5,0,0,0,.5.48h0a.51.51,0,0,0,.48-.52,108.46,108.46,0,0,1,.4-12A.5.5,0,0,0,133,89.55Z" style="fill:#fff"></path></g></g><g id="freepik--Floor--inject-304"><path d="M64.44,394.4H435.22a1.89,1.89,0,0,1,1.89,1.89v17.12a0,0,0,0,1,0,0H62.55a0,0,0,0,1,0,0V396.29A1.89,1.89,0,0,1,64.44,394.4Z" style="fill:#6D0AD8"></path><path d="M64.44,394.4H435.22a1.89,1.89,0,0,1,1.89,1.89v17.12a0,0,0,0,1,0,0H62.55a0,0,0,0,1,0,0V396.29A1.89,1.89,0,0,1,64.44,394.4Z" style="fill:#fff;opacity:0.5"></path><rect x="410.74" y="398.21" width="24.53" height="12.88" style="fill:#fff;opacity:0.2"></rect><rect x="384.9" y="396.98" width="24.53" height="12.88" style="fill:#fff;opacity:0.2"></rect><rect x="367.89" y="401.67" width="15.97" height="8.19" style="fill:#fff;opacity:0.2"></rect><rect x="68.58" y="402.73" width="15.97" height="8.19" style="fill:#fff;opacity:0.2"></rect><rect x="349.82" y="397.58" width="16.79" height="11.21" style="fill:#fff;opacity:0.2"></rect><rect x="337.16" y="396.07" width="11.42" height="11.21" style="fill:#fff;opacity:0.2"></rect><rect x="86.4" y="398.21" width="11.42" height="11.21" style="fill:#fff;opacity:0.2"></rect><rect x="289.03" y="398.21" width="11.42" height="11.21" style="fill:#fff;opacity:0.2"></rect><rect x="301.03" y="396.07" width="11.42" height="7.75" style="fill:#fff;opacity:0.2"></rect><rect x="317.19" y="399.04" width="18.81" height="11.21" style="fill:#fff;opacity:0.2"></rect><rect x="268.93" y="397.58" width="18.81" height="11.21" style="fill:#fff;opacity:0.2"></rect><rect x="370.63" y="396.98" width="12.11" height="3.61" style="fill:#fff;opacity:0.2"></rect><rect x="68.58" y="397.24" width="12.11" height="3.61" style="fill:#fff;opacity:0.2"></rect><rect x="302.87" y="405.48" width="12.11" height="3.61" style="fill:#fff;opacity:0.2"></rect><rect x="242.74" y="398.21" width="24.53" height="12.88" style="fill:#fff;opacity:0.2"></rect><rect x="216.9" y="396.98" width="24.53" height="12.88" style="fill:#fff;opacity:0.2"></rect><rect x="199.89" y="401.67" width="15.97" height="8.19" style="fill:#fff;opacity:0.2"></rect><rect x="181.82" y="397.58" width="16.79" height="11.21" style="fill:#fff;opacity:0.2"></rect><rect x="169.16" y="396.07" width="11.42" height="11.21" style="fill:#fff;opacity:0.2"></rect><rect x="121.03" y="398.21" width="11.42" height="11.21" style="fill:#fff;opacity:0.2"></rect><rect x="133.03" y="396.07" width="11.42" height="7.75" style="fill:#fff;opacity:0.2"></rect><rect x="149.19" y="399.04" width="18.81" height="11.21" style="fill:#fff;opacity:0.2"></rect><rect x="100.93" y="397.58" width="18.81" height="11.21" style="fill:#fff;opacity:0.2"></rect><rect x="202.63" y="396.98" width="12.11" height="3.61" style="fill:#fff;opacity:0.2"></rect><rect x="134.87" y="405.48" width="12.11" height="3.61" style="fill:#fff;opacity:0.2"></rect><path d="M323.46,416s4.85-19.95,7.36-20-3,13.95-2.29,13,12.27-16.86,14.75-14S332,410.24,332,410.24s9.5-4.49,10.64-2.77-11.59,6-11.59,6,5.31.51,6.1,1.37-8,1.17-8,1.17Z" style="fill:#6D0AD8"></path><path d="M104.56,416s1.94-13.4,5-13.1-2.06,8.74-1.19,8,8.84-10.68,12.71-7.42-10.14,8.74-10.14,8.74,7.11-1.91,7.87-.69-9.39,4.49-9.39,4.49Z" style="fill:#6D0AD8"></path><path d="M384.73,416s1.94-13.4,4.95-13.1-2.05,8.74-1.18,8,8.84-10.68,12.71-7.42-10.14,8.74-10.14,8.74,7.1-1.91,7.87-.69-9.39,4.49-9.39,4.49Z" style="fill:#6D0AD8"></path></g><g id="freepik--speech-bubble--inject-304"><rect x="284.36" y="88.38" width="60.41" height="60.41" rx="7.02" style="fill:#6D0AD8"></rect><path d="M301.09,145.45s-3.24,12.84-10.8,17.37c0,0,11-3.18,20.3-16.54Z" style="fill:#6D0AD8"></path><rect x="312.74" y="97.25" width="2.71" height="2.03" style="fill:#263238"></rect><rect x="311.78" y="94.74" width="4.64" height="2.96" rx="0.64" style="fill:#263238"></rect><path d="M317.41,101.5h-6.63l.83-2.06a.65.65,0,0,1,.6-.41H316a.65.65,0,0,1,.61.41Z" style="fill:#263238"></path><rect x="311.78" y="94.74" width="4.64" height="2.96" rx="0.64" style="fill:#fff;opacity:0.6000000000000001"></rect><path d="M317.41,101.5h-6.63l.83-2.06a.65.65,0,0,1,.6-.41H316a.65.65,0,0,1,.61.41Z" style="fill:#fff;opacity:0.6000000000000001"></path><rect x="325.26" y="101.42" width="2.71" height="2.03" transform="translate(126.72 -175.44) rotate(36.86)" style="fill:#263238"></rect><rect x="325.52" y="99.32" width="4.64" height="2.96" rx="0.64" transform="translate(125.98 -176.5) rotate(36.86)" style="fill:#263238"></rect><path d="M327.33,107,322,103l1.91-1.15a.67.67,0,0,1,.73,0l3,2.25a.68.68,0,0,1,.24.69Z" style="fill:#263238"></path><rect x="325.52" y="99.32" width="4.64" height="2.96" rx="0.64" transform="translate(125.98 -176.5) rotate(36.86)" style="fill:#fff;opacity:0.6000000000000001"></rect><path d="M327.33,107,322,103l1.91-1.15a.67.67,0,0,1,.73,0l3,2.25a.68.68,0,0,1,.24.69Z" style="fill:#fff;opacity:0.6000000000000001"></path><rect x="300.22" y="101.42" width="2.71" height="2.03" transform="translate(604.32 3.51) rotate(143.14)" style="fill:#263238"></rect><rect x="298.03" y="99.32" width="4.64" height="2.96" rx="0.64" transform="translate(601.13 1.29) rotate(143.14)" style="fill:#263238"></rect><path d="M300.86,107l5.31-4-1.9-1.15a.67.67,0,0,0-.73,0l-3,2.25a.68.68,0,0,0-.24.69Z" style="fill:#263238"></path><rect x="298.03" y="99.32" width="4.64" height="2.96" rx="0.64" transform="translate(601.13 1.29) rotate(143.14)" style="fill:#fff;opacity:0.6000000000000001"></rect><path d="M300.86,107l5.31-4-1.9-1.15a.67.67,0,0,0-.73,0l-3,2.25a.68.68,0,0,0-.24.69Z" style="fill:#fff;opacity:0.6000000000000001"></path><circle cx="314.59" cy="119.13" r="18.99" style="fill:#263238"></circle><circle cx="314.59" cy="119.13" r="18.99" style="fill:#fff;opacity:0.7000000000000001"></circle><path d="M314.6,136.4a17.27,17.27,0,1,1,17.27-17.27A17.29,17.29,0,0,1,314.6,136.4Z" style="fill:#fff;opacity:0.30000000000000004"></path><circle cx="314.59" cy="119.13" r="16.27" style="fill:#fff"></circle><path d="M315.7,122.49l-1.13-1.8a1.55,1.55,0,0,1-1.43-2.24L306,107h0l8.37,10.59a1.56,1.56,0,0,1,1.45.66,1.58,1.58,0,0,1,.17,1.45l1.29,1.68Z" style="fill:#263238"></path><g style="opacity:0.2"><path d="M314.59,116.31a4.22,4.22,0,1,1,4.22-4.21A4.22,4.22,0,0,1,314.59,116.31Zm0-7.93a3.72,3.72,0,1,0,3.72,3.72A3.72,3.72,0,0,0,314.59,108.38Z"></path></g><path d="M314.67,112.35a.24.24,0,0,1-.14,0,.25.25,0,0,1-.07-.34l1.68-2.52a.25.25,0,0,1,.34-.07.25.25,0,0,1,.07.35l-1.67,2.51A.25.25,0,0,1,314.67,112.35Z" style="fill:#263238"></path><circle cx="314.67" cy="112.1" r="0.57" style="fill:#263238"></circle><g style="opacity:0.2"><path d="M301.33,119.38h-1.49a.25.25,0,0,1-.25-.25.26.26,0,0,1,.25-.25h1.49a.25.25,0,0,1,.25.25A.25.25,0,0,1,301.33,119.38Z"></path><path d="M329.35,119.38h-1.49a.25.25,0,0,1-.25-.25.25.25,0,0,1,.25-.25h1.49a.26.26,0,0,1,.25.25A.25.25,0,0,1,329.35,119.38Z"></path><path d="M314.59,106.12a.26.26,0,0,1-.25-.25v-1.49a.25.25,0,0,1,.25-.25.25.25,0,0,1,.25.25v1.49A.25.25,0,0,1,314.59,106.12Z"></path><path d="M314.59,134.13a.25.25,0,0,1-.25-.25V132.4a.25.25,0,0,1,.25-.25.25.25,0,0,1,.25.25v1.48A.25.25,0,0,1,314.59,134.13Z"></path><path d="M305.21,110a.23.23,0,0,1-.17-.07L304,108.88a.25.25,0,1,1,.35-.35l1.05,1a.25.25,0,0,1-.18.42Z"></path><path d="M325,129.81a.24.24,0,0,1-.18-.07l-1.05-1.05a.25.25,0,0,1,.35-.35l1.05,1a.24.24,0,0,1,0,.35A.23.23,0,0,1,325,129.81Z"></path><path d="M324,110a.25.25,0,0,1-.18-.42l1.05-1a.25.25,0,0,1,.35.35l-1.05,1.05A.23.23,0,0,1,324,110Z"></path><path d="M304.16,129.81a.23.23,0,0,1-.17-.07.24.24,0,0,1,0-.35l1.05-1a.25.25,0,1,1,.35.35l-1.05,1.05A.24.24,0,0,1,304.16,129.81Z"></path><path d="M302.33,114.33a.18.18,0,0,1-.1,0l-1.37-.56a.25.25,0,1,1,.19-.46l1.37.56a.25.25,0,0,1,.14.33A.24.24,0,0,1,302.33,114.33Z"></path><path d="M328.24,125l-.1,0-1.37-.57a.24.24,0,0,1-.14-.32A.25.25,0,0,1,327,124l1.37.57a.25.25,0,0,1,.14.32A.26.26,0,0,1,328.24,125Z"></path><path d="M319.65,107.12l-.1,0a.26.26,0,0,1-.14-.33l.57-1.37a.25.25,0,0,1,.33-.14.26.26,0,0,1,.13.33l-.56,1.37A.26.26,0,0,1,319.65,107.12Z"></path><path d="M309,133a.2.2,0,0,1-.1,0,.25.25,0,0,1-.13-.32l.56-1.37a.26.26,0,0,1,.33-.14.25.25,0,0,1,.14.33l-.57,1.37A.24.24,0,0,1,309,133Z"></path><path d="M309.49,107.14a.25.25,0,0,1-.23-.16l-.57-1.37a.25.25,0,0,1,.46-.19l.57,1.37a.24.24,0,0,1-.13.33Z"></path><path d="M320.27,133a.25.25,0,0,1-.23-.15l-.57-1.37a.24.24,0,0,1,.13-.33.26.26,0,0,1,.33.13l.57,1.37a.26.26,0,0,1-.13.33Z"></path><path d="M326.84,114.28a.25.25,0,0,1-.23-.15.26.26,0,0,1,.13-.33l1.37-.57a.25.25,0,0,1,.2.46l-1.37.57Z"></path><path d="M301,125.06a.25.25,0,0,1-.23-.16.25.25,0,0,1,.13-.32l1.37-.57a.25.25,0,0,1,.33.13.26.26,0,0,1-.13.33l-1.37.57Z"></path></g></g><g id="freepik--Character--inject-304"><path d="M224.28,153.56c4.72-7.34,11.15-9.61,20.15-8.53S256,156.21,263,157.84s11-1.33,11-1.33-.63,8.75-5.95,11A13.94,13.94,0,0,0,274,165a7.94,7.94,0,0,1-6.82,4.08,4.13,4.13,0,0,0,3.17,1.21s-1.26,4.89-13.16,7.18c-5.92,1.14-14.93-2.29-14.93-2.29s-.19,7.49-4.45,8.45-3.78,3.65-3.78,3.65-2.83-1.2-2.69-2.78a3.09,3.09,0,0,0-.46,2.78s-6-2.39-6.6-8.32,4.81-16.12,3.63-20.28S224.28,153.56,224.28,153.56Z" style="fill:#263238"></path><path d="M315.29,290.69a34.24,34.24,0,0,1-32,6.68c-19.25-5.53,1.84-29.27,1.84-29.27S299.84,284,315.29,290.69Z" style="fill:#6D0AD8"></path><path d="M315.29,290.69a34.24,34.24,0,0,1-32,6.68c-19.25-5.53,1.84-29.27,1.84-29.27S299.84,284,315.29,290.69Z" style="opacity:0.2"></path><path d="M359.65,366.21l-3.07,4.45c-5.94-4.82-45.4-30.27-66.81-41.83-.56-.3-1.34-.68-2.18-1.16h0c-1.87-1.05-4.08-2.55-5.2-4.61-9.73-17.81-25-56.07-29-66.18l-1-2.5,17.79-5a7.8,7.8,0,0,1,2.41,1.51c4.72,3.9,15.58,17.43,25.46,62.88a2.8,2.8,0,0,0,1.35,1.6,3.18,3.18,0,0,0,.71.3C329.2,327.14,359.65,366.21,359.65,366.21Z" style="fill:#ffb573"></path><path d="M368.66,365.67l-.3,1.48-1.9,0,1.21,5.32-2.51,12.36s-2.38,1.57-2.76-4.64a3.84,3.84,0,0,0-.15-.9c-.83-3.44-4.89-8.91-4.89-8.91l1.37-6.79a10.23,10.23,0,0,1,1.09-.35C361.47,362.84,364.86,362.19,368.66,365.67Z" style="fill:#263238"></path><path d="M359.82,363.28h0c-1.19.69,2.37,5.66,3.26,9,.78,2.93.76,6-.86,7.1-.83-3.44-6.25-9.68-6.25-9.68l1.1-5.45S359.12,363.47,359.82,363.28Z" style="fill:#ffb573"></path><path d="M299.43,315.37a96,96,0,0,1-11.84,12.3h0c-1.87-1.05-4.08-2.55-5.2-4.61-9.73-17.81-25-56.07-29-66.18l19.22-6c4.72,3.9,15.58,17.43,25.46,62.88A2.8,2.8,0,0,0,299.43,315.37Z" style="opacity:0.2"></path><path d="M325.34,234.38c-2.61,3.07-6.68,3.91-9.08,1.87s-2.23-6.19.39-9.27,6.68-3.91,9.08-1.86S328,231.3,325.34,234.38Z" style="fill:#6D0AD8"></path><path d="M344.89,250.82l-9.05,10.91s-2.68-10.87-8.62-15.92l4.58-5.39.73-.84,4.58-5.4c5.94,5,17.1,5.95,17.1,5.95Z" style="fill:#6D0AD8"></path><path d="M325.34,234.38c-2.61,3.07-6.68,3.91-9.08,1.87s-2.23-6.19.39-9.27,6.68-3.91,9.08-1.86S328,231.3,325.34,234.38Z" style="fill:#fff;isolation:isolate;opacity:0.8"></path><path d="M344.89,250.82l-9.05,10.91s-2.68-10.87-8.62-15.92l4.58-5.39.73-.84,4.58-5.4c5.94,5,17.1,5.95,17.1,5.95Z" style="fill:#fff;isolation:isolate;opacity:0.8"></path><path d="M326.3,227.13s6.18-6,11.17-7.66a.78.78,0,0,1,.91.38l2.88,5.51a.76.76,0,0,1-.5,1.1c-2.06.46-6.89,1.74-10,4.24C326.66,234,326.3,227.13,326.3,227.13Z" style="fill:#6D0AD8"></path><path d="M326.3,227.13s6.18-6,11.17-7.66a.78.78,0,0,1,.91.38l2.88,5.51a.76.76,0,0,1-.5,1.1c-2.06.46-6.89,1.74-10,4.24C326.66,234,326.3,227.13,326.3,227.13Z" style="isolation:isolate;opacity:0.30000000000000004"></path><path d="M354.22,239.76c-1.37-1.15-6.66,2.84-11.84,8.92s-8.26,12-6.9,13.11,6.66-2.83,11.83-8.92S355.58,240.92,354.22,239.76Z" style="fill:#fff"></path><path d="M353.19,241.66c-1-.87-5.15,2.28-9.43,7.13l-.74.85c-.29.35-.58.69-.85,1-4,5-6.41,9.44-5.4,10.3s5.64-2.65,10.18-8S354.28,242.58,353.19,241.66Z" style="isolation:isolate;opacity:0.4"></path><path d="M325.36,223.72s-1.87.85-5.9,5.58c-4.36,5.13-4.59,6.76-4.59,6.76l13.25,11.27s.59-2.06,4.68-6.86,5.81-5.47,5.81-5.47Z" style="fill:#6D0AD8"></path><path d="M343.76,248.79l-.74.85c-.29.35-.58.69-.85,1l1.44.79a.72.72,0,0,0,.92-.22l.17-.2a.72.72,0,0,0,.07-.94Z" style="fill:#fff"></path><path d="M343.76,248.79l-.74.85c-.29.35-.58.69-.85,1l1.44.79a.72.72,0,0,0,.92-.22l.17-.2a.72.72,0,0,0,.07-.94Z" style="isolation:isolate;opacity:0.2"></path><path d="M209.29,218.71a5.5,5.5,0,0,1-1.56-10.78,81.46,81.46,0,0,0,24.67-12.69,5.5,5.5,0,0,1,6.89,8.57,91.2,91.2,0,0,1-28.44,14.67A5.61,5.61,0,0,1,209.29,218.71Z" style="fill:#ffb573"></path><path d="M245,188.13c-3.54-1.93-33.36,17.71-33.36,17.71l5.46,11.87s32.78-14.37,33.56-19.3C251.51,193.27,250.19,191,245,188.13Z" style="fill:#6D0AD8"></path><g style="opacity:0.5"><path d="M250.68,198.41c-.3,1.93-5.53,5.32-11.78,8.73-2,1.09-4.14,2.2-6.23,3.25s-3.94,2-5.77,2.81c-3,1.42-5.56,2.62-7.33,3.41-1.53.71-2.44,1.1-2.44,1.1l-1.51-3.3-3.94-8.58,3.07-2c7.69-4.94,27.44-17.28,30.27-15.73C250.2,190.94,251.51,193.28,250.68,198.41Z" style="fill:#fff"></path></g><polygon points="214.41 202.94 219.87 217.42 216.25 218.09 210.51 205.84 214.41 202.94" style="fill:#6D0AD8"></polygon><polygon points="219.87 217.42 216.26 218.09 214.81 215 210.51 205.84 214.41 202.93 214.75 203.85 218.16 212.89 219.56 216.62 219.87 217.42" style="fill:#fff;opacity:0.30000000000000004"></polygon><path d="M238.9,207.14c-2,1.09-4.14,2.2-6.23,3.25s-3.94,2-5.77,2.81c1.81-12.09,9.92-9.82,9.92-9.82C237.55,203.93,238.65,206.45,238.9,207.14Z" style="opacity:0.1"></path><path d="M229.57,195.12s-3.43,2.66,20.3,47.94L283,232c-5.05-13.3-7.94-21.59-10.72-51.41a101.19,101.19,0,0,0-14.58,2.81,111.49,111.49,0,0,0-15,5C236.4,191.17,229.57,195.12,229.57,195.12Z" style="fill:#6D0AD8"></path><g style="opacity:0.8"><path d="M283,232l-33.13,11c-23.74-45.28-20.31-47.94-20.31-47.94s6.83-3.94,13.09-6.69a114.84,114.84,0,0,1,15-5,102,102,0,0,1,14.58-2.8c.46,4.94.92,9.27,1.4,13.15.4,3.31.82,6.28,1.25,9C277.05,216,279.52,222.79,283,232Z" style="fill:#fff"></path></g><path d="M237.81,188c2.74,11,11.91,13.45,11.91,13.45,10.15-11.1,11.53-20.06,11.53-20.06Z" style="fill:#ffb573"></path><path d="M260.06,181.73s1.19,19.91,4.22,25.05,41,26.64,41,26.64l-2.77-17.8-23.34-6.73-6.89-28.28Z" style="fill:#6D0AD8"></path><path d="M240.28,188.71s.66,20.31,1.32,24.8-1.32,12.26-1.32,12.26a106.31,106.31,0,0,1-11.21-31.12Z" style="fill:#6D0AD8"></path><path d="M305.29,233.42s-38-21.5-41-26.64-4.22-25.05-4.22-25.05l12.23-1.12,2.69,11,3,12.54,1.15,4.71,23.35,6.73Z" style="fill:#fff;opacity:0.5"></path><path d="M240.28,188.71s.66,20.31,1.32,24.8-1.32,12.26-1.32,12.26a106.31,106.31,0,0,1-11.21-31.12Z" style="fill:#fff;opacity:0.5"></path><path d="M250.57,180.41C258.22,178.88,268,184,268,184l-4-.4-2.11,7.12,3-4.74s-1.27,19.5-1.32,19.38c-5.93-14.84-4.15-20.83-7.25-21.36l-12,3.69s-4.14,3.16-2.64,27.3l-7.12-21.23,3.3,1.31-1.19-3.69-3.43.66S241.33,182.25,250.57,180.41Z" style="fill:#6D0AD8"></path><path d="M250.57,180.41C258.22,178.88,268,184,268,184l-4-.4-2.11,7.12,3-4.74s-1.27,19.5-1.32,19.38c-5.93-14.84-4.15-20.83-7.25-21.36l-12,3.69s-4.14,3.16-2.64,27.3l-7.12-21.23,3.3,1.31-1.19-3.69-3.43.66S241.33,182.25,250.57,180.41Z" style="fill:#fff;opacity:0.30000000000000004"></path><path d="M278,204.18c-5.64-3-9.53-16.05-3-12.54Z" style="opacity:0.1"></path><path d="M245.74,208.14l-5.19-3.06-6.91,1.71a5.57,5.57,0,0,0-3.71,3l-.36.77c2,3,6.46,3.93,6.46,3.93l7.8.7Z" style="fill:#ffb573"></path><path d="M282.86,229.91l1.83,2.68c.2.19,0,.52-.38.65l-34.1,11.36c-.3.1-.6,0-.68-.15l-1.29-2.86c-.09-.2.11-.46.44-.57l33.56-11.18A.65.65,0,0,1,282.86,229.91Z" style="fill:#263238"></path><path d="M279.6,235.16l.9-.3c.18-.06.29-.19.24-.3L279,230.84c0-.1-.24-.14-.42-.08l-.89.3c-.18.05-.29.19-.24.3l1.71,3.71C279.24,235.18,279.42,235.22,279.6,235.16Z" style="fill:#6D0AD8"></path><g style="opacity:0.30000000000000004"><path d="M279.6,235.16l.9-.3c.18-.06.29-.19.24-.3L279,230.84c0-.1-.24-.14-.42-.08l-.89.3c-.18.05-.29.19-.24.3l1.71,3.71C279.24,235.18,279.42,235.22,279.6,235.16Z"></path></g><path d="M252.84,244.08l.9-.3c.18-.06.28-.2.23-.3l-1.7-3.72c-.05-.11-.24-.15-.42-.09l-.9.3c-.18.06-.28.2-.23.31l1.7,3.71C252.47,244.1,252.66,244.14,252.84,244.08Z" style="fill:#6D0AD8"></path><path d="M252.84,244.08l.9-.3c.18-.06.28-.2.23-.3l-1.7-3.72c-.05-.11-.24-.15-.42-.09l-.9.3c-.18.06-.28.2-.23.31l1.7,3.71C252.47,244.1,252.66,244.14,252.84,244.08Z" style="opacity:0.30000000000000004"></path><path d="M266.22,239.62l.9-.3c.18-.06.28-.19.23-.3l-1.7-3.72c0-.11-.24-.15-.42-.09l-.9.3c-.18.06-.28.2-.23.31l1.7,3.71C265.85,239.64,266,239.68,266.22,239.62Z" style="fill:#6D0AD8"></path><path d="M266.22,239.62l.9-.3c.18-.06.28-.19.23-.3l-1.7-3.72c0-.11-.24-.15-.42-.09l-.9.3c-.18.06-.28.2-.23.31l1.7,3.71C265.85,239.64,266,239.68,266.22,239.62Z" style="opacity:0.30000000000000004"></path><path d="M328.64,217.07l1.22,10.43,6.77-7.2s-1.93-5.94-5.9-6.66Z" style="fill:#ffb573"></path><polygon points="335.61 233.31 340.94 226.97 336.63 220.3 329.86 227.5 335.61 233.31" style="fill:#ffb573"></polygon><path d="M292.73,300.34c-2.1,7.08-4.92,15.27-8.64,24.72-1.36,3.45-2.84,7.09-4.46,10.89-.95,32-28,74.86-28,74.86l-5.35-1.4c2.57-7.4,13.37-54.25,17.05-78.87,3.51-23.45,11.88-78.45,11.88-78.45l21.1,5.54S303,265.68,292.73,300.34Z" style="fill:#ffb573"></path><path d="M253.78,419.29h-1.51l-.43-1.85-5,2.3-12.62.12s-2-2,4-3.66a4.86,4.86,0,0,0,.85-.34c3.19-1.53,7.7-6.65,7.7-6.65l6.92-.06a7.76,7.76,0,0,1,.58,1C255.05,411.66,256.38,414.85,253.78,419.29Z" style="fill:#263238"></path><path d="M254.28,410.15v0c-.93-1-5,3.5-8.07,5.06-2.71,1.38-5.76,2-7.13.64,3.19-1.53,8.16-8.14,8.16-8.14l5.57-.05S254,409.5,254.28,410.15Z" style="fill:#ffb573"></path><path d="M247.73,170.29c1.59,5,5.24,13.62,10,14.88,0,0,1.28,5.2-7,9.79-9.13,5-6.86-2.13-6.86-2.13,4.32-3.94,2.15-7.56-.63-10.55Z" style="fill:#ffb573"></path><path d="M245.9,175.18l-2.67,7.09A17,17,0,0,1,245,184.5c1.75-1.33,3.21-4.86,2.31-7A7.44,7.44,0,0,0,245.9,175.18Z" style="opacity:0.2"></path><path d="M245.94,157.88c3.87,7.61,5.67,10.75,4.18,16.7-2.24,8.95-12.43,12-18.5,5.74-5.46-5.67-10.86-17.16-5.4-24.31A11.64,11.64,0,0,1,245.94,157.88Z" style="fill:#ffb573"></path><path d="M238.48,154.36c-.64,3.74,6.14,11.79,10.65,11.34C260.61,160.81,240.73,141.37,238.48,154.36Z" style="fill:#263238"></path><path d="M225.15,152.41c-5.24,6.12-1.66,13.75-1.66,13.75,1.28-1.55,5.91-4.47,9.8-5.19a15.09,15.09,0,0,1-2.57-5l9.49.55s5.1-2.09.52-5.89C237.82,148.19,229,147.91,225.15,152.41Z" style="fill:#263238"></path><path d="M234.74,167.26c.35.6.32,1.27-.07,1.5s-1-.07-1.34-.67-.32-1.27.07-1.5S234.39,166.66,234.74,167.26Z" style="fill:#263238"></path><path d="M228,171.23c.35.6.32,1.27-.07,1.5s-1-.07-1.34-.66-.32-1.27.07-1.5S227.63,170.63,228,171.23Z" style="fill:#263238"></path><path d="M226.83,170.5l-1.68.43S226.55,171.62,226.83,170.5Z" style="fill:#263238"></path><path d="M231.34,170.55a18.37,18.37,0,0,1,.11,5.06,3,3,0,0,0,2.37-.85Z" style="fill:#ed893e"></path><path d="M239.57,171.8a6.37,6.37,0,0,1,.86-.55.21.21,0,0,1,.28.09.21.21,0,0,1-.09.27,5.44,5.44,0,0,0-3,4,.21.21,0,0,1-.41,0A5.7,5.7,0,0,1,239.57,171.8Z" style="fill:#263238"></path><path d="M251.89,163.44a6.21,6.21,0,0,1-1,4.65c-1.27,1.78-3.27,1-4.07-.94-.71-1.72-.91-4.72.91-5.83A2.8,2.8,0,0,1,251.89,163.44Z" style="fill:#ffb573"></path><path d="M237,162.19a.4.4,0,0,1-.36.31c-1.87.19-3.08,2.29-3.09,2.31a.41.41,0,0,1-.56.16.42.42,0,0,1-.15-.56c.05-.1,1.43-2.49,3.72-2.72a.41.41,0,0,1,.45.37A.62.62,0,0,1,237,162.19Z" style="fill:#263238"></path><path d="M224.36,168.81a.39.39,0,0,1-.38-.13.41.41,0,0,1,0-.58,4,4,0,0,1,3.6-.94.41.41,0,0,1-.23.78h0a3.23,3.23,0,0,0-2.84.78A.37.37,0,0,1,224.36,168.81Z" style="fill:#263238"></path><path d="M233.59,166.52l-1.68.43S233.31,167.64,233.59,166.52Z" style="fill:#263238"></path><path d="M240.73,150.61c-6-2.45-10.8,5.34-10.8,5.34s1.58,2.75,7.51,4.5l.32-.37s-4.11-1.35-5.85-3.81A19,19,0,0,0,243.23,160C249.77,159.9,246.72,153.05,240.73,150.61Z" style="fill:#263238"></path><path d="M279.92,185.46c4.92,1.3,9.66,2.79,14.41,4.47,2.38.83,4.73,1.72,7.08,2.66,1.18.45,2.36.94,3.52,1.44l1.76.76.9.39,1.08.53c.76.35,1.31.7,1.94,1.06s1.17.73,1.74,1.1c1.15.74,2.18,1.49,3.24,2.25,2.09,1.53,4.06,3.11,6,4.72a145.07,145.07,0,0,1,11.11,10.22l-3.78,4.8c-4.25-2.46-8.47-5-12.65-7.51-2.09-1.23-4.17-2.47-6.25-3.62-1-.56-2.06-1.15-3.06-1.64-.51-.25-1-.53-1.49-.72s-1-.48-1.37-.6l-.61-.23-.83-.27-1.71-.55-3.45-1.08-7-2.11-13.95-4.18Z" style="fill:#ffb573"></path><path d="M271.43,180.7c3.57-.81,30.87,11.75,30.87,11.75l-2.7,11.84s-27.8-5.16-30-9.36C267.25,190.56,267.36,181.63,271.43,180.7Z" style="fill:#6D0AD8"></path><g style="opacity:0.5"><path d="M271.43,180.7c3.57-.81,30.87,11.75,30.87,11.75l-2.7,11.84s-27.8-5.16-30-9.36C267.25,190.56,267.36,181.63,271.43,180.7Z" style="fill:#fff"></path></g><polygon points="296.83 204.29 298.49 189.49 303.2 192.48 300.01 205.28 296.83 204.29" style="fill:#6D0AD8"></polygon><polygon points="296.83 204.29 298.49 189.49 303.2 192.48 300.01 205.28 296.83 204.29" style="fill:#fff;opacity:0.30000000000000004"></polygon><path d="M249.53,244.45l14.75,48.7L264,310l22.15-3.43s3.43-1.31,10-25.84c0,0,10.4,8.61,19.1,9.93l4.22-7.12s-14.09,5.36-20.15-7.3c0,0,5.75-30.39-14.67-43.68Z" style="fill:#6D0AD8"></path><path d="M209.28,208.47c1.81-.13,3.62-.15,5.47-.27s3.71-.2,5.6-.34l5.71-.42c1.92-.12,3.9-.26,5.82-.27l1.57,4.7a35.28,35.28,0,0,1-5.63,2.89,48.31,48.31,0,0,1-5.91,2,50.64,50.64,0,0,1-6.16,1.3,37.59,37.59,0,0,1-6.38.41Z" style="fill:#ffb573"></path><path d="M231.08,207.54a11.15,11.15,0,0,0,.13,5.57l1-.13s-.29-3.46.27-5Z" style="fill:#263238"></path><path d="M231.08,207.54a11.15,11.15,0,0,0,.13,5.57l1-.13s-.29-3.46.27-5Z" style="fill:#fff;opacity:0.5"></path><path d="M233.29,207.44c0,.47-.65.86-1.45.86s-1.45-.39-1.45-.86.65-.86,1.45-.86S233.29,207,233.29,207.44Z" style="fill:#263238"></path><path d="M233.07,207.24c0,.4-.55.73-1.23.73s-1.22-.33-1.22-.73.55-.72,1.22-.72S233.07,206.84,233.07,207.24Z" style="fill:#fff"></path><path d="M264.81,292.49a141.93,141.93,0,0,1,2.37-26.3S261.25,272.91,264.81,292.49Z" style="opacity:0.2"></path></g></svg>
